# xmcd
#
# Track frame offsets: 
#        150
#        20022
#        36486
#        57813
#        80237
#        116206
#        136764
#        151241
#        173821
#        193054
#        225202
#        251103
#
# Disc length: 3569 seconds
#
# Revision: 11
# Processed by: cddbd v1.5.2PL0 Copyright (c) Steve Scherf et al.
# Submitted via: ExactAudioCopyFreeDBPlugin 1.0
#
DISCID=a00def0c
DTITLE=The Doors - L.A.Woman
DYEAR=1971
DGENRE=Blues Rock
TTITLE0=The Changeling
TTITLE1=Love Her Madly
TTITLE2=Been Down So Long
TTITLE3=Cars Hiss by My Window
TTITLE4=L.A.Woman
TTITLE5=L'America
TTITLE6=Hyacinth House
TTITLE7=Crawling King Snake
TTITLE8=The WASP (Texas Radio and the Big Beat)
TTITLE9=Riders on the Storm
TTITLE10=Orange County Suite
TTITLE11=(You Need Meat) Don't Go No Further
EXTD=YEAR: 1971
EXTT0=
EXTT1=
EXTT2=
EXTT3=
EXTT4=
EXTT5=
EXTT6=
EXTT7=
EXTT8=
EXTT9=
EXTT10=
EXTT11=
PLAYORDER=
